PathFileType	4	(X/Y/Z)	C:/Users/opensim2020/Desktop/walking_exp_matlab/subject06_walking20_straight_01.trc																																																																																																																															
DataRate	CameraRate	NumFrames	NumMarkers	Units	OrigDataRate	OrigDataStartFrame	OrigNumFrames																																																																																																																											
100	100	5	43	mm	100	733	127																																																																																																																											
Frame#	Time	LFHD			RFHD			LBHD			RBHD			C7			T10			CLAV			STRN			RBAK			LSHO			LUPA			LELB			LFRM			LWRA			LWRB			LFIN			RSHO			RUPA			RELB			RFRM			RWRA			RWRB			RFIN			LASI			RASI			LPSI			RPSI			LTHI			LKNE			LTIB			LANK			LHEE			LTOE			RTHI			RKNE			RTIB			RANK			RHEE			RTOE			*39			*40			*41			*42		
		X1	Y1	Z1	X2	Y2	Z2	X3	Y3	Z3	X4	Y4	Z4	X5	Y5	Z5	X6	Y6	Z6	X7	Y7	Z7	X8	Y8	Z8	X9	Y9	Z9	X10	Y10	Z10	X11	Y11	Z11	X12	Y12	Z12	X13	Y13	Z13	X14	Y14	Z14	X15	Y15	Z15	X16	Y16	Z16	X17	Y17	Z17	X18	Y18	Z18	X19	Y19	Z19	X20	Y20	Z20	X21	Y21	Z21	X22	Y22	Z22	X23	Y23	Z23	X24	Y24	Z24	X25	Y25	Z25	X26	Y26	Z26	X27	Y27	Z27	X28	Y28	Z28	X29	Y29	Z29	X30	Y30	Z30	X31	Y31	Z31	X32	Y32	Z32	X33	Y33	Z33	X34	Y34	Z34	X35	Y35	Z35	X36	Y36	Z36	X37	Y37	Z37	X38	Y38	Z38	X39	Y39	Z39	X40	Y40	Z40	X41	Y41	Z41	X42	Y42	Z42	X43	Y43	Z43
																																																																																																																																		
1	0	-890.10834	1641.89856	-1049.06567	-904.2392	1622.927	-920.59033	-1023.75012	1588.026	-1066.84924	-1034.73804	1574.1925	-938.59723	-1030.76758	1433.45178	-1017.06378	-1104.32214	1113.97681	-1006.94855	-927.51709	1346.00928	-1010.07684	-908.03961	1166.64905	-1019.12189	-1123.58923	1273.80884	-942.52667	-966.9646	1384.30969	-1173.3905	-955.0976	1183.01941	-1241.46033	-943.14063	1070.78442	-1252.06616	-854.70361	949.68195	-1255.49988	-747.4444	895.75098	-1194.4281	-789.39856	852.48895	-1231.80664	-707.88531	813.97333	-1220.73267	-978.2406	1383.13782	-851.10968	-1061.43762	1199.26794	-767.73456	-1082.00598	1078.48718	-755.08545	-1096.64331	959.09637	-735.65381	-1070.51843	808.21259	-761.29462	-1124.92065	824.08252	-724.42999	-1109.65381	740.67542	-721.17578	-961.06354	928.68622	-1118.94421	-934.22144	947.60718	-902.38275	-1110.64453	972.93347	-1077.62781	-1085.19226	985.40076	-912.18585	-1076.30444	617.61786	-1170.75659	-1096.25513	454.89948	-1159.59021	-1306.61157	308.87473	-1147.87878	-1442.28662	215.9102	-1110.39807	-1469.39221	242.45093	-1062.39136	-1412.8783	68.37791	-1109.15564	-919.78613	634.05737	-840.79425	-880.59863	517.82568	-875.70288	-910.19849	252.8838	-869.6416	-933.58008	68.15612	-912.44714	-978.84338	43.8252	-951.94714	-782.99091	32.97713	-925.93127	-997.45764	1676.65771	-999.33612	NaN	NaN	NaN	NaN	NaN	NaN	NaN	NaN	NaN
2	0.01	-877.95935	1644.33618	-1048.91443	-891.79285	1625.66443	-920.4668	-1011.70313	1590.68921	-1066.38098	-1022.40332	1577.02844	-938.01599	-1018.61273	1436.03845	-1016.04602	-1092.00708	1116.39441	-1005.65472	-915.52802	1348.58765	-1009.54297	-895.97754	1169.18518	-1018.46814	-1111.16321	1276.42712	-940.64368	-956.0498	1386.89722	-1172.97046	-945.91492	1185.00879	-1240.57336	-934.94257	1072.60059	-1250.77954	-849.2442	949.1568	-1255.68042	-742.98499	891.66785	-1195.87793	-786.50018	850.14154	-1233.64185	-705.98035	809.25677	-1223.61914	-965.34558	1385.73865	-850.41125	-1046.92334	1201.2821	-766.42169	-1066.62439	1080.30652	-753.96619	-1079.42993	960.6839	-734.94672	-1051.17859	810.36536	-761.66888	-1105.50427	825.16339	-724.17383	-1088.39856	741.82422	-721.57977	-948.80499	931.27533	-1118.21973	-922.66803	949.60211	-901.30304	-1098.53589	975.1286	-1077.14136	-1073.23669	987.84192	-911.69421	-1058.19214	618.72321	-1170.48645	-1072.93445	455.79871	-1159.89099	-1282.89819	310.49539	-1148.33691	-1419.59021	219.85088	-1109.28638	-1447.76099	245.36823	-1061.34167	-1385.66736	73.59691	-1109.57764	-912.57458	634.44708	-840.63702	-875.10858	517.59949	-875.6037	-908.40027	252.85884	-869.57782	-933.45679	68.07012	-912.32379	-978.98486	43.79606	-951.73309	-783.15381	33.05103	-926.04553	-985.08307	1679.27209	-999.03107	NaN	NaN	NaN	NaN	NaN	NaN	NaN	NaN	NaN
3	0.02	-866.1322	1646.85901	-1049.53748	-879.39539	1628.28638	-920.36774	-999.73169	1593.1416	-1065.9425	-1010.00055	1579.79626	-937.52435	-1006.83716	1438.57556	-1015.0802	-1079.86499	1118.85999	-1004.45477	-903.64404	1351.03638	-1009.07538	-884.10187	1171.55701	-1017.82635	-1098.82422	1279.06213	-938.84326	-944.8877	1389.12195	-1171.73462	-937.07117	1186.8894	-1239.81799	-927.03381	1074.28479	-1249.50537	-844.39313	948.56427	-1255.95959	-739.16895	887.41479	-1197.5802	-784.35382	847.61731	-1235.4231	-705.05634	804.2851	-1226.6825	-952.49548	1388.23267	-849.72046	-1032.09656	1202.99988	-764.92548	-1051.00366	1081.99561	-752.79187	-1061.93042	962.13354	-734.18713	-1031.50281	812.52899	-761.89868	-1085.60425	826.16614	-723.94733	-1067.40173	743.34283	-721.79596	-936.68628	933.86218	-1117.76294	-910.40692	951.97876	-900.41467	-1086.46326	977.37311	-1076.80371	-1061.14319	990.17981	-911.29126	-1040.03552	620.24329	-1170.18896	-1049.42383	457.26138	-1159.97607	-1259.0835	312.44894	-1148.11279	-1394.50684	221.3446	-1108.33081	-1423.64551	245.55896	-1059.87744	-1355.53174	77.24871	-1110.47302	-905.16699	634.6424	-840.44812	-869.6579	517.1969	-875.54047	-906.39465	252.80371	-869.57678	-933.42651	68.05275	-912.19281	-979.09644	43.70294	-951.56281	-783.41571	33.18967	-926.20795	-972.83569	1681.79724	-998.88257	NaN	NaN	NaN	NaN	NaN	NaN	NaN	NaN	NaN
4	0.03	-853.82159	1648.92188	-1049.24451	-866.89105	1630.90747	-920.47119	-987.77112	1595.41101	-1065.53528	-997.60327	1582.40405	-937.02924	-994.75415	1440.8385	-1014.09637	-1067.80298	1121.20178	-1003.26184	-891.7041	1353.2843	-1008.59784	-872.26666	1173.88879	-1017.11224	-1086.58069	1281.61719	-937.18097	-934.18384	1391.17419	-1171.46472	-928.21558	1188.64063	-1238.76367	-919.46356	1075.96375	-1248.28137	-840.02289	947.73773	-1256.40198	-736.05524	883.02881	-1199.60059	-782.9165	844.98969	-1237.17529	-704.94727	799.23639	-1230.02649	-939.65588	1390.54993	-849.09528	-1017.27411	1204.75098	-763.79938	-1035.1842	1083.52063	-751.59729	-1044.22888	963.51404	-733.35681	-1011.5188	814.59985	-762.0979	-1065.55896	827.1488	-723.48346	-1046.07666	744.79633	-721.80121	-924.51672	936.26355	-1117.29492	-898.35406	954.01184	-899.9646	-1074.45581	979.67841	-1076.28381	-1048.83923	992.25787	-910.80676	-1021.65991	622.22253	-1170.07068	-1025.84338	459.17499	-1159.96936	-1233.77747	314.17377	-1147.19812	-1368.30737	220.82715	-1107.64392	-1398.89087	244.15576	-1059.15039	-1323.95984	79.13425	-1111.58215	-897.53448	634.98883	-840.09418	-864.30505	516.65784	-875.66895	-904.44983	252.70808	-869.52313	-933.46283	68.04989	-912.13879	-979.40448	43.7308	-951.38422	-783.68677	33.31678	-926.39966	-960.58069	1684.25537	-998.86053	NaN	NaN	NaN	NaN	NaN	NaN	NaN	NaN	NaN
5	0.04	-841.71393	1650.95056	-1049.41284	-854.34589	1633.27661	-920.62915	-975.85211	1597.55408	-1065.14417	-985.20959	1584.87646	-936.53882	-982.87457	1443.08569	-1013.16425	-1055.90881	1123.55273	-1002.11682	-879.75348	1355.53137	-1008.41626	-860.60663	1176.02893	-1016.54059	-1074.3103	1284.0238	-935.65753	-923.3385	1393.19226	-1170.92542	-919.3797	1190.37512	-1237.96643	-911.96429	1077.50464	-1247.52893	-834.87988	948.08234	-1257.97314	-733.51282	878.52484	-1201.73462	-782.23724	842.28882	-1239.00293	-705.74109	794.12225	-1233.51428	-926.88135	1392.82788	-848.46838	-1002.54462	1206.35022	-762.43555	-1019.26807	1085.02356	-750.45667	-1026.2616	964.86047	-732.48975	-991.28931	816.84155	-762.3714	-1045.07678	828.14185	-722.99878	-1023.93671	746.33649	-721.59052	-912.41528	938.69702	-1116.92761	-886.62799	955.68707	-899.28162	-1062.4845	981.93146	-1075.58521	-1036.92786	994.46655	-910.30511	-1003.13361	624.54816	-1170.06873	-1002.23273	461.50641	-1159.94495	-1207.36304	314.90314	-1146.48572	-1340.82373	218.57567	-1107.02075	-1372.37659	240.47495	-1058.20544	-1290.80359	79.907	-1112.44482	-890.52753	634.81952	-840.37439	-859.3905	516.10889	-875.50989	-902.40912	252.39783	-869.46857	-933.42944	67.97162	-912.12317	-979.64008	43.76831	-951.27014	-783.95483	33.4234	-926.58716	-948.3468	1686.57593	-998.80969	NaN	NaN	NaN	NaN	NaN	NaN	NaN	NaN	NaN
